Coordinates
version=1
nRows=16
nColumns=30
inDegrees=yes

Units are S.I. units (second, meters, Newtons, ...)
Angles are in degrees.

endheader
time	floatyaw	floatroll	floatpitch	floatx	floaty	floatz	pro_sup_l	deviation_l	flexion_l	cmc_flexion_l	cmc_abduction_l	mp_flexion_l	ip_flexion_l	2mcp_flexion_l	2mcp_abduction_l	2pm_flexion_l	2md_flexion_l	3mcp_flexion_l	3mcp_abduction_l	3pm_flexion_l	3md_flexion_l	4mcp_flexion_l	4mcp_abduction_l	4pm_flexion_l	4md_flexion_l	5mcp_flexion_l	5mcp_abduction_l	5pm_flexion_l	5md_flexion_l
-1.495000	-160.147433	-5.066637	-73.570646	0.079762	-0.182170	-0.016086	100.532925	4.830514	-0.549835	15.905271	11.128451	-25.252529	-42.022197	29.637663	6.759587	43.602490	29.704204	24.881239	4.128950	44.986242	29.660479	13.734574	-4.144870	52.293445	36.310610	1.240581	-8.510989	62.004151	43.492097
-1.485000	-160.147433	-5.066637	-73.570646	0.079761	-0.182173	-0.016089	100.535681	4.833687	-0.554779	15.904612	11.180925	-25.268081	-42.023622	29.638561	6.765553	43.594346	29.707882	24.877205	4.126927	45.000924	29.676597	13.744294	-4.148731	52.275293	36.320204	1.242558	-8.504713	61.981431	43.490330
-1.475000	-160.147433	-5.066637	-73.570646	0.079759	-0.182178	-0.016095	100.530179	4.830773	-0.560259	15.897826	11.235808	-25.294960	-42.038259	29.651165	6.770358	43.575941	29.704946	24.875558	4.127589	45.012438	29.690954	13.755940	-4.154506	52.259907	36.332682	1.243268	-8.495585	61.960918	43.493574
-1.465000	-160.147433	-5.066637	-73.570646	0.079756	-0.182183	-0.016102	100.518550	4.822994	-0.565109	15.883034	11.288620	-25.329184	-42.061466	29.672572	6.774048	43.552705	29.697394	24.873863	4.130978	45.022025	29.702814	13.768010	-4.160720	52.249312	36.344202	1.244117	-8.485396	61.945659	43.500476
-1.455000	-160.147433	-5.066637	-73.570646	0.079754	-0.182187	-0.016109	100.504725	4.813246	-0.568009	15.861286	11.334955	-25.365316	-42.087303	29.697170	6.776554	43.530683	29.688310	24.869645	4.136087	45.029940	29.711550	13.777783	-4.165821	52.243631	36.351506	1.245903	-8.476839	61.937483	43.509038
-1.445000	-160.147433	-5.066637	-73.570646	0.079752	-0.182189	-0.016116	100.492685	4.804827	-0.568268	15.835178	11.373071	-25.398036	-42.111437	29.719832	6.777686	43.513461	29.679888	24.862286	4.141307	45.034769	29.716346	13.782894	-4.168785	52.241166	36.353417	1.248335	-8.472173	61.936405	43.517843
-1.435000	-160.147433	-5.066637	-73.570646	0.079752	-0.182190	-0.016121	100.485193	4.800176	-0.566385	15.807131	11.404934	-25.423587	-42.132606	29.737923	6.777479	43.501211	29.672581	24.853425	4.145271	45.034280	29.716537	13.782490	-4.169541	52.239980	36.351483	1.250203	-8.472077	61.940743	43.526575
-1.425000	-160.147433	-5.066637	-73.570646	0.079752	-0.182190	-0.016124	100.483489	4.800267	-0.563726	15.778327	11.434679	-25.440523	-42.151817	29.751259	6.776458	43.492114	29.665742	24.845594	4.147584	45.027014	29.712207	13.777136	-4.168944	52.239725	36.349310	1.250061	-8.475502	61.947924	43.535659
-1.415000	-160.147433	-5.066637	-73.570646	0.079753	-0.182190	-0.016125	100.487926	4.804885	-0.561390	15.748706	11.465308	-25.449562	-42.169811	29.760462	6.775497	43.484988	29.659206	24.840113	4.148964	45.013448	29.704553	13.767720	-4.168269	52.242274	36.350798	1.246987	-8.480559	61.955616	43.545396
-1.405000	-160.147433	-5.066637	-73.570646	0.079756	-0.182188	-0.016125	100.498812	4.813362	-0.559029	15.717601	11.496139	-25.452788	-42.184575	29.765070	6.775309	43.481156	29.654587	24.835670	4.150675	44.996092	29.695828	13.754376	-4.168514	52.250609	36.358083	1.240873	-8.485707	61.962654	43.555271
-1.395000	-160.147433	-5.066637	-73.570646	0.079760	-0.182184	-0.016123	100.516461	4.825011	-0.554608	15.684350	11.523222	-25.452753	-42.191036	29.762894	6.775967	43.484092	29.655190	24.828483	4.153697	44.978562	29.688813	13.736325	-4.169933	52.266694	36.370335	1.232108	-8.490360	61.969214	43.563855
-1.385000	-160.147433	-5.066637	-73.570646	0.079766	-0.182174	-0.016119	100.540299	4.838894	-0.545474	15.648622	11.542449	-25.451902	-42.183697	29.751276	6.776864	43.497034	29.664313	24.814060	4.158198	44.964136	29.685909	13.712761	-4.172115	52.289839	36.384127	1.221098	-8.494620	61.976113	43.569321
-1.375000	-160.147433	-5.066637	-73.570646	0.079775	-0.182159	-0.016115	100.568039	4.853388	-0.530179	15.610718	11.552761	-25.452358	-42.160650	29.729425	6.777251	43.520229	29.682988	24.789669	4.163642	44.954465	29.688131	13.684033	-4.174444	52.316857	36.395328	1.208273	-8.498629	61.983780	43.570239
-1.365000	-160.147433	-5.066637	-73.570646	0.079785	-0.182139	-0.016111	100.596088	4.866322	-0.509782	15.572055	11.557033	-25.455788	-42.125992	29.700089	6.776991	43.549798	29.708735	24.756130	4.169325	44.949041	29.694537	13.652067	-4.176577	52.344023	36.401453	1.194542	-8.502186	61.991856	43.566308
-1.355000	-160.147433	-5.066637	-73.570646	0.079796	-0.182120	-0.016111	100.621068	4.875811	-0.487615	15.535586	11.560330	-25.463237	-42.088756	29.669142	6.776962	43.578999	29.736251	24.717849	4.174878	44.945595	29.702511	13.619585	-4.178532	52.369239	36.402964	1.181451	-8.504908	61.999786	43.558753
-1.345000	-160.147433	-5.066637	-73.570646	0.079805	-0.182104	-0.016113	100.641153	4.881146	-0.467569	15.505436	11.566982	-25.475102	-42.059099	29.643323	6.778655	43.601091	29.759632	24.681047	4.180375	44.941078	29.708829	13.588725	-4.180390	52.392571	36.402653	1.170420	-8.506637	62.007895	43.550221
